<svg width="25" height="32" viewBox="0 0 25 32" fill="none" xmlns="http://www.w3.org/2000/svg">
<g clip-path="url(#clip0_101_619)">
<path fill-rule="evenodd" clip-rule="evenodd" d="M20.5 3.75H4C3.17157 3.75 2.5 4.42157 2.5 5.25V18.75C2.5 19.5784 3.17157 20.25 4 20.25H20.5C21.3284 20.25 22 19.5784 22 18.75V5.25C22 4.42157 21.3284 3.75 20.5 3.75ZM4 8.25H11.5V15.75H4V8.25ZM13 6.75V5.25H16V6.75H13ZM11.5 6.75H8.5V5.25H11.5V6.75ZM11.5 17.25V18.75H8.5V17.25H11.5ZM13 17.25H16V18.75H13V17.25ZM13 15.75V8.25H20.5V15.75H13ZM20.5 6.75H17.5V5.25H20.5V6.75ZM7 5.25V6.75H4V5.25H7ZM4 17.25H7V18.75H4V17.25ZM20.5 18.75H17.5V17.25H20.5V18.75Z" fill="#94ADC7"/>
</g>
<defs>
<clipPath id="clip0_101_619">
<rect width="24" height="24" fill="white" transform="translate(0.25)"/>
</clipPath>
</defs>
</svg>
