<svg width="25" height="32" viewBox="0 0 25 32" fill="none" xmlns="http://www.w3.org/2000/svg">
<g clip-path="url(#clip0_101_244)">
<path fill-rule="evenodd" clip-rule="evenodd" d="M14.875 2.5H6.125C5.43464 2.5 4.875 3.05964 4.875 3.75V17.5C4.87511 17.7271 4.99846 17.9364 5.19716 18.0464C5.39586 18.1565 5.63863 18.1501 5.83125 18.0297L10.5 15.1117L15.1695 18.0297C15.3621 18.1497 15.6046 18.1558 15.803 18.0458C16.0015 17.9358 16.1247 17.7269 16.125 17.5V3.75C16.125 3.05964 15.5654 2.5 14.875 2.5ZM14.875 3.75V12.6227L10.8305 10.0953C10.6278 9.96864 10.3706 9.96864 10.168 10.0953L6.125 12.6219V3.75H14.875ZM10.8305 13.8453C10.6278 13.7186 10.3706 13.7186 10.168 13.8453L6.125 16.3727V14.0961L10.5 11.3617L14.875 14.0961V16.3727L10.8305 13.8453Z" fill="#94ADC7"/>
</g>
<defs>
<clipPath id="clip0_101_244">
<rect width="20" height="20" fill="white" transform="translate(0.5)"/>
</clipPath>
</defs>
</svg>
