<svg width="25" height="24" viewBox="0 0 25 24" fill="none" xmlns="http://www.w3.org/2000/svg">
<g clip-path="url(#clip0_101_633)">
<path fill-rule="evenodd" clip-rule="evenodd" d="M17.5 3H7C6.17157 3 5.5 3.67157 5.5 4.5V21C5.50014 21.2726 5.64815 21.5236 5.88659 21.6557C6.12503 21.7878 6.41636 21.7801 6.6475 21.6356L12.25 18.1341L17.8534 21.6356C18.0845 21.7796 18.3755 21.787 18.6136 21.655C18.8518 21.523 18.9997 21.2723 19 21V4.5C19 3.67157 18.3284 3 17.5 3ZM12.6466 16.6144C12.4034 16.4624 12.0948 16.4624 11.8516 16.6144L7 19.6472V16.9153L12.25 13.6341L17.5 16.9153V19.6472L12.6466 16.6144Z" fill="white"/>
</g>
<defs>
<clipPath id="clip0_101_633">
<rect width="24" height="24" fill="white" transform="translate(0.25)"/>
</clipPath>
</defs>
</svg>
