<svg width="25" height="32" viewBox="0 0 25 32" fill="none" xmlns="http://www.w3.org/2000/svg">
<g clip-path="url(#clip0_101_625)">
<path fill-rule="evenodd" clip-rule="evenodd" d="M21 10H14.5603L17.7806 6.78063C17.9702 6.59105 18.0442 6.31474 17.9748 6.05578C17.9055 5.79681 17.7032 5.59454 17.4442 5.52515C17.1853 5.45576 16.9089 5.5298 16.7194 5.71938L12.75 9.68969L8.78063 5.71938C8.59105 5.5298 8.31474 5.45576 8.05578 5.52515C7.79681 5.59454 7.59454 5.79681 7.52515 6.05578C7.45576 6.31474 7.5298 6.59105 7.71938 6.78063L10.9397 10H4.5C3.67157 10 3 10.6716 3 11.5V22.75C3 23.5784 3.67157 24.25 4.5 24.25H21C21.8284 24.25 22.5 23.5784 22.5 22.75V11.5C22.5 10.6716 21.8284 10 21 10ZM4.5 11.5H14.25V22.75H4.5V11.5ZM21 22.75H15.75V11.5H21V22.75ZM19.5 14.875C19.5 15.4963 18.9963 16 18.375 16C17.7537 16 17.25 15.4963 17.25 14.875C17.25 14.2537 17.7537 13.75 18.375 13.75C18.9963 13.75 19.5 14.2537 19.5 14.875ZM19.5 19.375C19.5 19.9963 18.9963 20.5 18.375 20.5C17.7537 20.5 17.25 19.9963 17.25 19.375C17.25 18.7537 17.7537 18.25 18.375 18.25C18.9963 18.25 19.5 18.7537 19.5 19.375Z" fill="#94ADC7"/>
</g>
<defs>
<clipPath id="clip0_101_625">
<rect width="24" height="24" fill="white" transform="translate(0.75 4)"/>
</clipPath>
</defs>
</svg>
